<svg width="63" height="63" viewBox="0 0 63 63" fill="none" xmlns="http://www.w3.org/2000/svg">
<path d="M25.0523 28.568C25.6641 28.125 25.9594 27.3937 25.9594 26.3883C25.9805 25.9102 25.882 25.4391 25.6711 25.0102C25.4813 24.6656 25.2 24.3773 24.8555 24.1734C24.4982 23.9568 24.1015 23.8134 23.6883 23.7516C23.2383 23.6672 22.7813 23.625 22.3313 23.632H17.3883V29.2359H22.7391C23.6602 29.243 24.4406 29.018 25.0523 28.568V28.568ZM25.882 33.6305C25.193 33.1031 24.2719 32.843 23.1258 32.843H17.3742V39.4523H23.0133C23.5406 39.4523 24.0258 39.4031 24.4969 39.3047C24.9426 39.2175 25.3675 39.0457 25.7484 38.7984C26.107 38.5664 26.3953 38.25 26.6133 37.8422C26.8242 37.4344 26.9297 36.9141 26.9297 36.2883C26.9297 35.0437 26.5781 34.1648 25.882 33.6305V33.6305ZM31.5 0C14.1047 0 0 14.1047 0 31.5C0 48.8953 14.1047 63 31.5 63C48.8953 63 63 48.8953 63 31.5C63 14.1047 48.8953 0 31.5 0ZM37.582 20.1727H47.3133V22.5422H37.582V20.1727ZM31.5 39.7125C31.0448 40.5765 30.3949 41.3227 29.6016 41.8922C28.7719 42.4687 27.8508 42.8906 26.8734 43.1367C25.8509 43.4107 24.7961 43.5455 23.7375 43.5375H12.0938V19.5539H23.4141C24.5602 19.5539 25.6008 19.6594 26.55 19.8562C27.4922 20.0531 28.2937 20.3906 28.9688 20.8477C29.6367 21.3047 30.1641 21.9164 30.5367 22.6758C30.9023 23.4281 31.0922 24.3703 31.0922 25.4883C31.0922 26.6977 30.818 27.6961 30.2695 28.5047C29.7141 29.3133 28.9125 29.9672 27.8227 30.4805C29.3063 30.9023 30.3961 31.6547 31.1133 32.7094C31.8445 33.7781 32.2031 35.0578 32.2031 36.5625C32.2031 37.7859 31.9711 38.8336 31.5 39.7125ZM51.1031 36H38.5594C38.5594 37.3641 39.0305 38.6719 39.7406 39.375C40.4578 40.0711 41.4844 40.4227 42.8273 40.4227C43.7977 40.4227 44.6203 40.1766 45.3234 39.6914C46.0195 39.2062 46.4414 38.693 46.5961 38.1586H50.8008C50.1258 40.2469 49.0992 41.7375 47.707 42.6375C46.3289 43.5375 44.6414 43.9875 42.6797 43.9875C41.3086 43.9875 40.0781 43.7625 38.9742 43.3336C37.9125 42.9187 36.9563 42.2859 36.1688 41.4703C35.3923 40.6327 34.7921 39.6476 34.4039 38.5734C33.975 37.3852 33.7641 36.1336 33.7781 34.875C33.7781 33.5742 33.9961 32.3648 34.418 31.2398C35.2266 29.0531 36.907 27.3023 39.0516 26.3953C40.1977 25.9172 41.4281 25.6781 42.6727 25.6922C44.1492 25.6922 45.4289 25.9734 46.5398 26.55C47.6093 27.1006 48.5379 27.8896 49.2539 28.8562C49.9641 29.8195 50.4633 30.9164 50.7797 32.1539C51.082 33.3703 51.1875 34.65 51.1031 36V36ZM42.525 29.2781C41.7656 29.2781 41.1258 29.4117 40.6336 29.6719C40.1414 29.932 39.7336 30.2555 39.4242 30.6281C39.1296 30.9879 38.9118 31.4043 38.7844 31.8516C38.6719 32.2242 38.5945 32.6039 38.5664 32.9906H46.3359C46.2234 31.7742 45.8016 30.8742 45.2391 30.2414C44.6484 29.6156 43.6992 29.2781 42.525 29.2781V29.2781Z" fill="white"/>
</svg>
