<svg width="26" height="26" viewBox="0 0 26 26" fill="none" xmlns="http://www.w3.org/2000/svg">
<path d="M9.11214 16.2843C10.5561 15.9124 11.9283 15.4043 13.2201 14.7924C11.2282 11.2243 7.18021 8.77643 2.52014 8.77643H2.46825C1.94425 10.0844 1.6521 11.5083 1.6521 13.0005C1.6521 14.4045 1.90824 15.7444 2.37196 16.9846C4.57617 17.0923 6.84429 16.8683 9.11214 16.2843Z" fill="white"/>
<path d="M13.5879 15.5C12.2439 16.1401 10.8158 16.668 9.31193 17.0561C7.33593 17.5642 5.35993 17.808 3.42379 17.808C3.18774 17.808 2.95169 17.8041 2.71591 17.796C4.52391 21.664 8.44806 24.3479 13.0002 24.3479C13.1601 24.3479 13.3163 24.344 13.4723 24.3359C14.1562 22.952 14.5404 21.416 14.5404 19.7999C14.5401 18.2759 14.2002 16.82 13.5881 15.5L13.5879 15.5Z" fill="white"/>
<path d="M14.3 15.1443C14.968 16.5762 15.336 18.1482 15.336 19.8003C15.336 21.3761 14.9959 22.8843 14.3879 24.2604C16.136 24.0483 17.7599 23.4364 19.1681 22.5243C19.1681 22.4562 19.172 22.3884 19.172 22.3203C19.172 19.1245 18.4521 16.0924 17.172 13.3768C16.2721 14.0246 15.3081 14.6167 14.3 15.1446L14.3 15.1443Z" fill="white"/>
<path d="M13.9364 14.4364C14.9524 13.9085 15.9124 13.3084 16.8126 12.6485C14.6926 8.57264 11.2805 5.27207 7.12043 3.29636C5.28029 4.41636 3.78029 6.04443 2.82436 7.98836C7.66807 8.08824 11.8565 10.6842 13.9365 14.4364H13.9364Z" fill="white"/>
<path d="M22.3764 6.60786C21.1844 4.864 19.5204 3.472 17.5684 2.61179C17.5483 2.85984 17.5363 3.10788 17.5363 3.35564C17.5363 5.80371 18.4125 8.06771 19.8885 9.89971C20.8363 8.87993 21.6644 7.77193 22.3764 6.60786Z" fill="white"/>
<path d="M22.8443 7.36C22.1364 8.47186 21.3284 9.528 20.4124 10.504C21.4924 11.6639 22.8284 12.6159 24.3365 13.2841C24.3404 13.1882 24.3446 13.0922 24.3446 12.9962C24.3482 10.9482 23.8002 9.02407 22.8443 7.36Z" fill="white"/>
<path d="M17.4557 12.16C18.1198 11.636 18.7436 11.0721 19.3319 10.48C17.7038 8.49593 16.7398 6.028 16.7398 3.35614C16.7398 3.00011 16.7599 2.65218 16.7959 2.30421C15.6078 1.88429 14.3319 1.65215 12.9998 1.65215C11.1957 1.65215 9.4878 2.07626 7.97187 2.82822C12.0157 4.88015 15.3397 8.15215 17.4554 12.1597L17.4557 12.16Z" fill="white"/>
<path d="M19.86 11.0757C19.2241 11.7116 18.5439 12.3156 17.824 12.8756C19.1521 15.6318 19.908 18.7116 19.9599 21.9556C22.348 20.0957 23.9758 17.3078 24.2919 14.1278C22.584 13.4199 21.072 12.3719 19.8599 11.0759L19.86 11.0757Z" fill="white"/>
<path d="M13 0C5.83214 0 0 5.832 0 13C0 20.168 5.832 26 13 26C20.168 26 26 20.168 26 13C26 5.832 20.168 0 13 0ZM13 25.1557C6.29607 25.1557 0.844286 19.7037 0.844286 13C0.844286 6.29629 6.29629 0.844286 13 0.844286C19.7037 0.844286 25.1557 6.29629 25.1557 13C25.1557 19.7037 19.7037 25.1557 13 25.1557Z" fill="white"/>
</svg>
