<svg width="112" height="108" viewBox="0 0 112 108" fill="none" xmlns="http://www.w3.org/2000/svg">
<path d="M72.5288 95.9557H39.2846C36.221 95.9557 33.7376 98.4391 33.7376 101.503C33.7376 104.566 36.221 107.05 39.2846 107.05H72.5288C75.5923 107.05 78.0757 104.566 78.0757 101.503C78.0757 98.4391 75.5923 95.9557 72.5288 95.9557Z" fill="#2D4059"/>
<path d="M45.5143 40.9105L42.8993 51.3696L53.3584 48.7545L74.3216 27.7913L66.4776 19.9472L45.5143 40.9105Z" fill="#2D4059"/>
<path d="M77.2817 54.0029H41.374C40.6561 54.0029 40.1244 53.319 40.2979 52.6241L43.4359 40.0731C43.577 39.5073 42.0294 41.337 71.6432 11.6427L11.6259 11.6434V20.5184H43.797C44.4095 20.5184 44.9064 21.0153 44.9064 21.6278C44.9064 22.2404 44.4095 22.7372 43.797 22.7372H11.6259V31.6122H23.8289C24.4415 31.6122 24.9383 32.1091 24.9383 32.7216C24.9383 33.3342 24.4415 33.831 23.8289 33.831H11.6259V64.8925H89.2289C88.6671 58.7942 83.5245 54.0029 77.2817 54.0029Z" fill="#2D4059"/>
<path d="M103.26 0.550003H8.74037C4.21341 0.550003 0.530945 4.23227 0.530945 8.75943V72.2152C0.530945 76.7421 4.21321 80.4246 8.74037 80.4246H103.26C107.787 80.4246 111.469 76.7423 111.469 72.2152V8.75943C111.469 4.23247 107.787 0.550003 103.26 0.550003ZM102.594 66.0039C102.594 66.6164 102.097 67.1133 101.485 67.1133H10.5154C9.90284 67.1133 9.40599 66.6164 9.40599 66.0039V10.5346C9.40599 9.92211 9.90282 9.42525 10.5154 9.42525H101.485C102.097 9.42525 102.594 9.92209 102.594 10.5346V66.0039Z" fill="#2D4059"/>
<path d="M68.0457 18.3791L74.3217 12.1031L82.1657 19.9472L75.8897 26.2232L68.0457 18.3791Z" fill="#2D4059"/>
<path d="M84.5197 19.1642C84.9531 19.5976 84.9531 20.2997 84.5197 20.7332L76.6756 28.5772C53.3795 51.7922 54.7609 50.6927 54.195 50.8327L50.3859 51.7852H77.2828C84.7489 51.7852 90.8845 57.5713 91.4533 64.894L100.375 64.8932V11.6432H76.9998L84.5197 19.1642Z" fill="#2D4059"/>
<path d="M47.125 82.6443H64.875V93.7381H47.125V82.6443Z" fill="#2D4059"/>
</svg>
