<svg width="26" height="26" viewBox="0 0 26 26" fill="none" xmlns="http://www.w3.org/2000/svg">
<path fill-rule="evenodd" clip-rule="evenodd" d="M0 13C0 5.82098 5.82098 0 13 0C20.179 0 26 5.82098 26 13C26 20.179 20.179 26 13 26C5.82098 26 0 20.179 0 13Z" fill="white"/>
<path d="M12.9978 10.9989C11.5289 10.9989 10.3301 12.1228 10.3301 13.5C10.3301 14.8772 11.5289 16.0011 12.9978 16.0011C14.4668 16.0011 15.6656 14.8772 15.6656 13.5C15.6656 12.1228 14.4668 10.9989 12.9978 10.9989ZM20.9991 13.5C20.9991 12.4643 21.0091 11.438 20.9471 10.4042C20.885 9.20335 20.5928 8.13763 19.6562 7.25953C18.7176 6.37956 17.5829 6.10751 16.302 6.04934C15.1973 5.99118 14.1026 6.00056 12.9999 6.00056C11.8951 6.00056 10.8004 5.99118 9.69768 6.04934C8.41684 6.10751 7.28009 6.38144 6.34348 7.25953C5.40486 8.1395 5.11467 9.20335 5.05263 10.4042C4.99059 11.4399 5.0006 12.4662 5.0006 13.5C5.0006 14.5338 4.99059 15.562 5.05263 16.5958C5.11467 17.7967 5.40686 18.8624 6.34348 19.7405C7.28209 20.6204 8.41684 20.8925 9.69768 20.9507C10.8024 21.0088 11.8971 20.9994 12.9999 20.9994C14.1046 20.9994 15.1993 21.0088 16.302 20.9507C17.5829 20.8925 18.7196 20.6186 19.6562 19.7405C20.5948 18.8605 20.885 17.7967 20.9471 16.5958C21.0111 15.562 20.9991 14.5357 20.9991 13.5V13.5ZM12.9978 17.3482C10.7264 17.3482 8.89315 15.6296 8.89315 13.5C8.89315 11.3704 10.7264 9.65177 12.9978 9.65177C15.2693 9.65177 17.1025 11.3704 17.1025 13.5C17.1025 15.6296 15.2693 17.3482 12.9978 17.3482ZM17.2707 10.3929C16.7403 10.3929 16.312 9.99138 16.312 9.49417C16.312 8.99696 16.7403 8.59544 17.2707 8.59544C17.801 8.59544 18.2293 8.99696 18.2293 9.49417C18.2294 9.61223 18.2048 9.72917 18.1566 9.83827C18.1085 9.94738 18.0379 10.0465 17.9489 10.13C17.8598 10.2135 17.7541 10.2797 17.6377 10.3248C17.5213 10.3699 17.3966 10.393 17.2707 10.3929V10.3929Z" fill="#2D4059"/>
</svg>
