<svg width="26" height="26" viewBox="0 0 26 26" fill="none" xmlns="http://www.w3.org/2000/svg">
<path fill-rule="evenodd" clip-rule="evenodd" d="M0 13C0 5.82098 5.82098 0 13 0C20.179 0 26 5.82098 26 13C26 20.179 20.179 26 13 26C5.82098 26 0 20.179 0 13Z" fill="white"/>
<path d="M13.7778 20H10.6667V10.6667H13.7778V12.2222C14.1053 11.8055 14.521 11.4665 14.995 11.2294C15.469 10.9924 15.9896 10.8631 16.5194 10.851C17.4461 10.8561 18.3328 11.2286 18.9853 11.8866C19.6378 12.5446 20.0027 13.4345 20 14.3611V20H16.8889V14.75C16.8287 14.3297 16.6187 13.9452 16.2976 13.6674C15.9765 13.3896 15.5658 13.2371 15.1412 13.238C14.9512 13.244 14.7643 13.2883 14.5918 13.3684C14.4193 13.4484 14.2648 13.5624 14.1374 13.7036C14.0101 13.8448 13.9126 14.0103 13.8508 14.1901C13.789 14.3699 13.7642 14.5603 13.7778 14.75V20ZM9.11111 20H6V10.6667H9.11111V20ZM7.55555 9.11111C7.143 9.11111 6.74733 8.94722 6.45561 8.6555C6.16389 8.36378 6 7.96811 6 7.55556C6 7.143 6.16389 6.74733 6.45561 6.45561C6.74733 6.16389 7.143 6 7.55555 6C7.96811 6 8.36377 6.16389 8.6555 6.45561C8.94722 6.74733 9.11111 7.143 9.11111 7.55556C9.11111 7.96811 8.94722 8.36378 8.6555 8.6555C8.36377 8.94722 7.96811 9.11111 7.55555 9.11111Z" fill="#2D4059"/>
</svg>
