<svg width="135" height="101" viewBox="0 0 135 101" fill="none" xmlns="http://www.w3.org/2000/svg">
<path d="M49.466 68.8642C49.466 70.1221 50.3049 70.9611 51.5628 70.9611H98.7449C99.7933 70.9611 100.842 70.1222 100.842 68.8642C100.842 67.8158 99.7933 66.7674 98.7449 66.7674H51.5628C50.5144 66.7674 49.466 67.8158 49.466 68.8642Z" fill="#2D4059"/>
<path d="M64.1463 56.2822C64.1463 57.5401 64.9852 58.379 66.2431 58.379H98.7473C99.7958 58.379 100.844 57.5401 100.844 56.2822C100.844 55.2338 99.7958 54.1853 98.7473 54.1853H66.2431C65.1947 54.1853 64.1463 55.2338 64.1463 56.2822Z" fill="#2D4059"/>
<path d="M44.014 54.1839C42.3361 52.2966 40.0298 51.0386 37.5129 51.0386C34.7867 51.0386 32.2708 52.2965 30.8025 54.6038C29.1246 57.1207 24.5119 64.6692 22.8341 66.5564C18.6403 65.927 18.0109 62.9911 18.0109 61.7332V44.1186C18.0109 42.0217 15.494 41.3923 14.2362 42.8606L1.86378 58.7974C0.817277 60.6848 0.187854 62.572 0.397332 64.669C2.28469 81.6544 2.91424 94.2372 1.86571 97.5909C1.65621 98.2204 1.86571 98.8488 2.28469 99.4783C2.70367 99.8973 3.33312 100.317 3.96257 100.317H30.3846C31.2235 100.317 31.852 99.8982 32.272 99.0593C32.4815 98.6403 35.8372 90.6718 36.2562 81.0255C36.4656 75.993 39.192 71.1697 44.2245 64.6686C46.5309 61.5225 46.5308 57.1198 44.014 54.1839Z" fill="#2D4059"/>
<path d="M72.1141 18.9537C73.1626 18.9537 74.211 17.9053 74.211 16.8569C74.211 15.599 73.1626 14.76 72.1141 14.76H67.9204C66.8719 14.76 65.8235 15.5989 65.8235 16.8569C65.8235 17.9053 66.8719 18.9537 67.9204 18.9537H72.1141Z" fill="#2D4059"/>
<path d="M62.048 31.1181V42.6518C62.048 43.9097 62.8869 44.7486 64.1449 44.7486H75.6785C76.727 44.7486 77.7754 43.9097 77.7754 42.6518V31.1181C77.7754 29.8602 76.727 29.0212 75.6785 29.0212H64.1449C63.0974 29.0212 62.048 29.8592 62.048 31.1181Z" fill="#2D4059"/>
<path d="M85.1138 31.1181V42.6518C85.1138 43.9097 86.1623 44.7486 87.2107 44.7486H98.7444C99.7928 44.7486 100.841 43.9097 100.841 42.6518V31.1181C100.841 29.8602 99.7928 29.0212 98.7444 29.0212H87.2107C86.1623 29.0212 85.1138 29.8592 85.1138 31.1181Z" fill="#2D4059"/>
<path d="M95.18 18.9537C96.2284 18.9537 97.2768 17.9053 97.2768 16.8569C97.2768 15.599 96.2284 14.76 95.18 14.76H90.9862C89.9378 14.76 88.8893 15.5989 88.8893 16.8569C88.8893 17.9053 89.9378 18.9537 90.9862 18.9537H95.18Z" fill="#2D4059"/>
<path d="M49.0458 18.9537C50.0943 18.9537 51.1427 17.9053 51.1427 16.8569C51.1427 15.599 50.0943 14.76 49.0458 14.76H44.8521C43.5941 14.76 42.7552 15.5989 42.7552 16.8569C42.7552 17.9053 43.5941 18.9537 44.8521 18.9537H49.0458Z" fill="#2D4059"/>
<path d="M38.9822 31.1181V42.6518C38.9822 43.9097 39.8211 44.7486 41.079 44.7486H52.6127C53.6611 44.7486 54.7095 43.9097 54.7095 42.6518V31.1181C54.7095 29.8602 53.6611 29.0212 52.6127 29.0212H41.079C40.0306 29.0212 38.9822 29.8592 38.9822 31.1181Z" fill="#2D4059"/>
<path d="M126.214 0.292465H22.2036C17.59 0.292465 13.8161 4.06708 13.8161 8.68V38.4558C17.5907 36.9884 22.2036 39.9232 22.2036 44.3274V60.4737C24.51 56.9084 25.9782 54.1832 27.4458 52.2958C28.7037 50.4084 30.3816 48.941 32.4784 48.102L32.4793 4.48623H107.341V81.444H40.4497C40.4497 82.9114 40.2402 84.3799 40.0307 85.6378H126.214C130.828 85.6378 134.602 81.8632 134.602 77.2503L134.603 8.67802C134.603 4.06436 130.828 0.290489 126.215 0.290489L126.214 0.292465ZM123.068 48.1022C123.068 49.1507 122.02 50.1991 120.971 50.1991C119.714 50.1991 118.875 49.1507 118.875 48.1022V37.617C118.875 36.5685 119.714 35.5201 120.971 35.5201C122.02 35.5201 123.068 36.5685 123.068 37.617V48.1022Z" fill="#2D4059"/>
</svg>
