<svg width="26" height="26" viewBox="0 0 26 26" fill="none" xmlns="http://www.w3.org/2000/svg">
<path d="M10.3391 11.79C10.5915 11.6071 10.7134 11.3054 10.7134 10.8904C10.7221 10.6931 10.6815 10.4987 10.5944 10.3217C10.5161 10.1795 10.4 10.0605 10.2578 9.97634C10.1104 9.88693 9.94664 9.82775 9.77612 9.80223C9.5904 9.76741 9.40179 9.75 9.21607 9.7529H7.17612V12.0656H9.38437C9.76451 12.0685 10.0866 11.9757 10.3391 11.79ZM10.6815 13.8792C10.3971 13.6616 10.017 13.5542 9.54397 13.5542H7.17031V16.2819H9.49754C9.71518 16.2819 9.9154 16.2616 10.1098 16.221C10.2938 16.185 10.4691 16.1141 10.6263 16.0121C10.7743 15.9163 10.8933 15.7857 10.9833 15.6174C11.0703 15.4491 11.1138 15.2344 11.1138 14.9761C11.1138 14.4625 10.9687 14.0998 10.6815 13.8792ZM13 0C5.82098 0 0 5.82098 0 13C0 20.179 5.82098 26 13 26C20.179 26 26 20.179 26 13C26 5.82098 20.179 0 13 0ZM15.51 8.32522H19.5261V9.30313H15.51V8.32522ZM13 16.3893C12.8122 16.7459 12.5439 17.0538 12.2165 17.2888C11.8741 17.5268 11.494 17.7009 11.0906 17.8025C10.6686 17.9155 10.2333 17.9712 9.79643 17.9679H4.99107V8.06987H9.66295C10.1359 8.06987 10.5654 8.11339 10.9571 8.19464C11.346 8.27589 11.6768 8.41518 11.9554 8.60379C12.231 8.79241 12.4487 9.04487 12.6025 9.35826C12.7533 9.66875 12.8317 10.0576 12.8317 10.519C12.8317 11.0181 12.7185 11.4301 12.4922 11.7638C12.2629 12.0975 11.9321 12.3674 11.4824 12.5792C12.0946 12.7533 12.5444 13.0638 12.8404 13.4991C13.1422 13.9402 13.2902 14.4683 13.2902 15.0893C13.2902 15.5942 13.1944 16.0266 13 16.3893ZM21.0902 14.8571H15.9134C15.9134 15.4201 16.1078 15.9598 16.4009 16.25C16.6969 16.5373 17.1205 16.6824 17.6748 16.6824C18.0752 16.6824 18.4147 16.5808 18.7049 16.3806C18.9922 16.1804 19.1663 15.9685 19.2301 15.748H20.9654C20.6868 16.6098 20.2632 17.225 19.6886 17.5964C19.1199 17.9679 18.4234 18.1536 17.6138 18.1536C17.048 18.1536 16.5402 18.0607 16.0846 17.8837C15.6464 17.7125 15.2518 17.4513 14.9268 17.1147C14.6063 16.7691 14.3587 16.3625 14.1984 15.9192C14.0214 15.4288 13.9344 14.9123 13.9402 14.3929C13.9402 13.856 14.0301 13.3569 14.2042 12.8926C14.5379 11.9902 15.2315 11.2676 16.1165 10.8933C16.5895 10.696 17.0973 10.5973 17.6109 10.6031C18.2203 10.6031 18.7484 10.7192 19.2069 10.9571C19.6483 11.1844 20.0315 11.51 20.327 11.9089C20.6201 12.3065 20.8261 12.7592 20.9567 13.2699C21.0815 13.7719 21.125 14.3 21.0902 14.8571ZM17.55 12.083C17.2366 12.083 16.9725 12.1382 16.7694 12.2455C16.5663 12.3529 16.398 12.4864 16.2703 12.6402C16.1487 12.7887 16.0588 12.9605 16.0062 13.1451C15.9598 13.2989 15.9279 13.4556 15.9163 13.6152H19.1228C19.0763 13.1132 18.9022 12.7417 18.6701 12.4806C18.4263 12.2223 18.0346 12.083 17.55 12.083Z" fill="white"/>
</svg>
