<svg width="104" height="104" viewBox="0 0 104 104" fill="none" xmlns="http://www.w3.org/2000/svg">
<path d="M103.984 95.3568V28.2528C103.732 28.2528 103.517 28.278 103.265 28.278H0.0272052V94.5491C0.0272052 94.9655 0.0145891 95.3945 0.0145891 95.8109C0.0272053 98.0317 0.859874 100.227 2.49985 101.767C4.06424 103.243 6.08276 103.987 8.22752 104C8.65648 104 9.08543 103.987 9.51436 103.987H95.9346C95.9851 103.987 96.0356 104 96.0986 104C100.249 103.861 103.492 100.719 103.958 96.6309C104.009 96.2018 103.984 95.7854 103.984 95.3564L103.984 95.3568ZM76.4047 63.5203C73.4398 60.8706 70.4752 58.2081 67.523 55.5582C65.6558 53.88 63.7885 52.2144 61.9215 50.5361C60.8744 49.5897 61.0384 47.9242 61.9215 46.965C62.8803 45.9177 64.5078 46.0817 65.492 46.965C66.1858 47.5833 66.8671 48.2016 67.561 48.8199C70.5259 51.4696 73.4905 54.1196 76.4427 56.782C78.3099 58.4602 80.1772 60.1258 82.0442 61.8041C83.0156 62.6748 83.0156 64.4917 82.0442 65.3752C81.3503 65.9935 80.6691 66.6118 79.9752 67.2301C77.0103 69.8798 74.0456 72.5422 71.0934 75.1922C69.2263 76.8704 67.359 78.536 65.492 80.2143C64.4448 81.1607 62.9813 81.1859 61.9215 80.2143C60.9501 79.331 60.9375 77.5267 61.9215 76.6433C62.6154 76.025 63.2967 75.4067 63.9906 74.7884C66.9554 72.1387 69.9074 69.4762 72.8723 66.8263C74.0708 65.7411 75.2819 64.6685 76.4806 63.596C76.4553 63.5581 76.4299 63.5455 76.4047 63.5203ZM21.9656 61.8042C22.6594 61.1859 23.3407 60.5676 24.0346 59.9493C26.9995 57.2996 29.9641 54.6496 32.9163 51.9872C34.7835 50.309 36.6508 48.6434 38.5178 46.9651C39.5649 46.0187 41.0284 45.9935 42.0882 46.9651C43.0597 47.8484 43.0723 49.6527 42.0882 50.5361C41.3944 51.1544 40.7131 51.7727 40.0192 52.3784C37.0543 55.0281 34.1024 57.6906 31.1375 60.3405C29.939 61.4131 28.7279 62.4982 27.5292 63.5708L27.6049 63.6339C30.5698 66.2836 33.5344 68.946 36.4866 71.596C38.3538 73.2742 40.2211 74.9398 42.0881 76.6181C43.1352 77.5645 42.9712 79.23 42.0881 80.1892C41.1293 81.2365 39.5018 81.0724 38.5176 80.1892C37.8238 79.5709 37.1425 78.9526 36.4486 78.3469C33.4837 75.6972 30.5191 73.0348 27.5669 70.3848C25.6997 68.7066 23.8324 67.041 21.9654 65.3627C20.994 64.492 20.9941 62.675 21.9656 61.8042Z" fill="#2D4059"/>
<path d="M95.7968 0.000288697C94.5605 0.000288697 93.3494 0.0129069 92.1129 0.0129069H8.7078C8.37978 0.0129069 8.05175 -0.0123306 7.72375 0.0129069C3.54773 0.27788 0.280184 3.54589 0.028036 7.72261C-0.035045 8.66898 0.028036 9.62795 0.028036 10.5742V23.205C0.406512 23.205 0.911156 23.2429 1.35273 23.2429H103.984V12.0126C103.984 10.7508 104.009 9.48888 103.996 8.23969C103.984 3.65919 100.363 0.0126903 95.796 0L95.7968 0.000288697ZM61.1904 14.1454H56.144C54.731 14.1454 53.6839 12.9845 53.6207 11.6216C53.5575 10.2587 54.8192 9.09785 56.144 9.09785H61.1904C62.6034 9.09785 63.6506 10.2587 63.7138 11.6216C63.777 12.9845 62.5153 14.1454 61.1904 14.1454ZM76.3676 14.1454H71.3211C69.9081 14.1454 68.861 12.9845 68.7978 11.6216C68.7347 10.2588 69.9963 9.09785 71.3211 9.09785H76.3676C77.7806 9.09785 78.8277 10.2587 78.8909 11.6216C78.954 12.9844 77.6798 14.1454 76.3676 14.1454ZM91.532 14.1454H86.4856C85.0726 14.1454 84.0255 12.9845 83.9622 11.6216C83.8992 10.2588 85.1608 9.09785 86.4856 9.09785H91.532C92.945 9.09785 93.9921 10.2587 94.0553 11.6216C94.1184 12.9844 92.8568 14.1454 91.532 14.1454Z" fill="#2D4059"/>
</svg>
